<svg height="481pt" viewBox="-58 0 481 481.94322" width="481pt" xmlns="http://www.w3.org/2000/svg"><path d="m344.472656 472.230469c-81.277344 0-207.199218 14.320312-271.839844-39.839844-61.839843-51.757813-64.160156-170.398437-64.160156-248.160156v-32.398438c-.558594-62.054687 39.164063-117.316406 98.160156-136.5625 44-14.535156 92.304688-7.089843 129.882813 20.019531 37.582031 27.113282 59.878906 70.601563 59.957031 116.941407v1.121093c-.011718 9.910157-.789062 19.808594-2.320312 29.601563l-25.597656 164.316406c-5.148438 32.933594 7.144531 66.179688 32.480468 87.839844zm0 0" fill="#d8d7da"/><path d="m112.472656 144.230469c0-17.671875-10.746094-32-24-32s-24 14.328125-24 32c0 17.675781 10.746094 32 24 32s24-14.324219 24-32zm0 0" fill="#ab2300"/><path d="m240.472656 144.230469c0-17.671875-10.746094-32-24-32s-24 14.328125-24 32c0 17.675781 10.746094 32 24 32s24-14.324219 24-32zm0 0" fill="#ab2300"/><path d="m306.234375 429.03125c-23.300781-19.804688-34.582031-50.332031-29.761719-80.527344l25.601563-164.335937c1.585937-10.195313 2.390625-20.5 2.398437-30.816407v-1.121093c-.074218-48.871094-23.574218-94.746094-63.191406-123.363281-39.621094-28.617188-90.554688-36.503907-136.976562-21.210938-62.230469 20.433594-104.171876 78.675781-103.832032 144.175781v32.398438c0 69.265625 0 198.191406 67.023438 254.296875 44.25 37.070312 114.488281 43.414062 180.976562 43.414062 18.175782 0 36.066406-.46875 53.058594-.917968 15.261719-.410157 29.703125-.792969 42.941406-.792969h21.671875zm-5.160156 36c-76.449219 2.039062-171.601563 4.550781-223.304688-38.769531-61.296875-51.308594-61.296875-175.375-61.296875-242.03125v-32.398438c-.382812-58.496093 37.007813-110.5625 92.5625-128.890625 14.027344-4.375 28.636719-6.617187 43.335938-6.644531 36.085937-.070313 70.71875 14.226563 96.253906 39.726563 25.535156 25.503906 39.871094 60.117187 39.847656 96.207031v1.121093c0 9.492188-.734375 18.972657-2.199218 28.351563l-25.601563 164.34375c-5.679687 35.683594 7.664063 71.75 35.203125 95.144531l27.253906 23.296875c-7.152344.144531-14.496094.335938-22.054687.542969zm0 0"/><path d="m88.472656 104.230469c-17.648437 0-32 17.945312-32 40 0 22.058593 14.351563 40 32 40 17.648438 0 32-17.941407 32-40 0-22.054688-14.351562-40-32-40zm0 64c-8.671875 0-16-10.992188-16-24 0-13.007813 7.328125-24 16-24s16 10.992187 16 24c0 13.007812-7.328125 24-16 24zm0 0"/><path d="m216.472656 104.230469c-17.648437 0-32 17.945312-32 40 0 22.058593 14.351563 40 32 40 17.648438 0 32-17.941407 32-40 0-22.054688-14.351562-40-32-40zm0 64c-8.671875 0-16-10.992188-16-24 0-13.007813 7.328125-24 16-24s16 10.992187 16 24c0 13.007812-7.328125 24-16 24zm0 0"/><path d="m152.472656 254.863281-28.285156-28.289062-11.3125 11.3125 33.941406 33.945312c3.125 3.121094 8.1875 3.121094 11.3125 0l33.945313-33.945312-11.3125-11.3125zm0 0"/></svg>