
<svg xmlns="http://www.w3.org/2000/svg" version="1.1" xmlns:xlink="http://www.w3.org/1999/xlink" preserveAspectRatio="none" x="0px" y="0px" width="800px" height="800px" viewBox="0 0 800 800">
<defs>
<g id="Cup_0_Layer0_0_FILL">
<path fill="#F6F6F6" stroke="none" d="
M 371.95 96.4
Q 365.5 82.45 353.95 70.7 330.05 46.5 297.05 44.65 298.3 22.45 298.8 0
L 0 0
Q 3.2 155.45 46.3 300.95
L 252.45 300.95
Q 264.1 261.65 272.8 221.65 281.8 223.5 291.55 223.5 328.1 223.5 353.95 197.25 359.3 191.85 363.55 185.95 368.5 179.1 371.95 171.6 379.8 154.45 379.8 134 379.8 113.55 371.95 96.4
M 364.05 134
Q 364.05 164.45 342.8 185.95 321.55 207.5 291.55 207.5 283.5 207.5 276.15 206 290.7 134.45 296 60.65 323.15 62.1 342.8 82 364.05 103.55 364.05 134 Z"/>
</g>

<g id="Cup_0_Layer0_1_MEMBER_0_FILL">
<path fill="#000000" stroke="none" d="
M 282 63.55
L 282 46.25 186.95 101.3 282 156.05 282 138.8 216.85 101.15 282 63.55
M 393.05 66.25
L 382.5 55.7 348.65 89.5
Q 339.5 98.65 330.3 107.8
L 303.85 134.35 314.45 144.9 347.05 112.25 347.1 112.25 358.75 100.6
Q 362.15 97.2 365.65 93.75 365.8 93.65 365.9 93.5
L 366.6 92.8 366.55 92.8 393.05 66.25
M 415 46.25
L 415 63.5 479.95 101 415 138.5 415 155.8 509.85 100.85 415 46.25 Z"/>
</g>
</defs>

<g transform="matrix( 2.00250244140625, 0, 0, 2.00250244140625, 14.25,95.7) ">
<g transform="matrix( 1, 0, 0, 1, 0,0) ">
<use xlink:href="#Cup_0_Layer0_0_FILL"/>
</g>

<g transform="matrix( 0.7309722900390625, 0, 0, 0.7309722900390625, -106.5,62.25) ">
<use xlink:href="#Cup_0_Layer0_1_MEMBER_0_FILL"/>
</g>
</g>
</svg>
