<?xml version="1.0" encoding="UTF-8"?>
<svg preserveAspectRatio="none" version="1.1" viewBox="0 0 800 800" width="16" height="16" xmlns="http://www.w3.org/2000/svg" xmlns:xlink="http://www.w3.org/1999/xlink">
<defs>
<g id="c">
<path d="m371.95 96.4q-6.45-13.95-18-25.7-23.9-24.2-56.9-26.05 1.25-22.2 1.75-44.65h-298.8q3.2 155.45 46.3 300.95h206.15q11.65-39.3 20.35-79.3 9 1.85 18.75 1.85 36.55 0 62.4-26.25 5.35-5.4 9.6-11.3 4.95-6.85 8.4-14.35 7.85-17.15 7.85-37.6t-7.85-37.6m-7.9 37.6q0 30.45-21.25 51.95-21.25 21.55-51.25 21.55-8.05 0-15.4-1.5 14.55-71.55 19.85-145.35 27.15 1.45 46.8 21.35 21.25 21.55 21.25 52z" fill="#F6F6F6"/>
</g>
<g id="d">
<path d="m282 63.55v-17.3l-95.05 55.05 95.05 54.75v-17.25l-65.15-37.65 65.15-37.6m111.05 2.7-10.55-10.55-33.85 33.8q-9.15 9.15-18.35 18.3l-26.45 26.55 10.6 10.55 32.6-32.65h0.05l11.65-11.65q3.4-3.4 6.9-6.85 0.15-0.1 0.25-0.25l0.7-0.7h-0.05l26.5-26.55m21.95-20v17.25l64.95 37.5-64.95 37.5v17.3l94.85-54.95-94.85-54.6z"/>
</g>
</defs>
<g transform="matrix(2.0025 0 0 2.0025 14.25 95.7)">
<use xlink:href="#c"/>
<g transform="matrix(.73097 0 0 .73097 -106.5 62.25)">
<use xlink:href="#d"/>
</g>
</g>
</svg>
